<?xml version="1.0" standalone="no"?>
<!DOCTYPE svg PUBLIC "-//W3C//DTD SVG 1.1//EN" "http://www.w3.org/Graphics/SVG/1.1/DTD/svg11.dtd" >
<svg xmlns="http://www.w3.org/2000/svg">
<metadata>Generated by IcoMoon</metadata>
<defs>
<font id="icomoon" horiz-adv-x="1024">
<font-face units-per-em="1024" ascent="960" descent="-64" />
<missing-glyph horiz-adv-x="1024" />
<glyph unicode="&#x20;" horiz-adv-x="512" d="" />
<glyph unicode="&#xe900;" glyph-name="facebook" horiz-adv-x="828" d="M560.169 721.34h148.166c66.055 0 119.603 53.548 119.603 119.603s-53.548 119.603-119.603 119.603v0h-148.166c-177.581-0.155-321.493-144.087-321.618-321.66v-82.478h-118.729c-66.055 0-119.603-53.548-119.603-119.603s53.548-119.603 119.603-119.603v0h118.729v-262.144c1.433-65.006 54.469-117.156 119.685-117.156s118.253 52.149 119.683 117.022l0.002 0.133v262.144h156.303c66.055 0 119.603 53.548 119.603 119.603s-53.548 119.603-119.603 119.603v0h-156.358v82.466c0.062 45.462 36.853 82.311 82.287 82.466h0.015zM448.703 497.971h185.685c33.782 0 61.167-27.385 61.167-61.167s-27.385-61.167-61.167-61.167c0 0 0 0 0 0h-185.685c-0.017 0-0.036 0-0.056 0-16.041 0-29.062-12.926-29.217-28.93v-291.65c0-33.812-27.41-61.222-61.222-61.222s-61.222 27.41-61.222 61.222v0 291.089c-0.152 16.207-13.234 29.308-29.419 29.491h-147.746c-33.932 0-61.44 27.508-61.44 61.44s27.508 61.44 61.44 61.44v0h147.948c0.065-0.001 0.142-0.001 0.219-0.001 16.008 0 28.992 12.946 29.054 28.94v111.417c0.093 145.325 117.861 263.112 263.17 263.236h148.178c33.782 0 61.167-27.385 61.167-61.167s-27.385-61.167-61.167-61.167c0 0 0 0 0 0h-148.166c-77.71-0.186-140.646-63.179-140.739-140.894v-111.42c-0.001-0.065-0.001-0.142-0.001-0.219 0-16.148 13.075-29.242 29.216-29.273h0.003z" />
<glyph unicode="&#xe901;" glyph-name="flash-right" horiz-adv-x="904" d="M0.466 903.111v-909.756c-0.008-0.36-0.013-0.785-0.013-1.21 0-31.213 25.303-56.516 56.516-56.516 11.214 0 21.666 3.266 30.455 8.9l-0.226-0.135c34.506 20.051 726.965 419.672 786.186 453.712 17.359 9.927 28.869 28.334 28.869 49.428s-11.509 39.501-28.591 49.282l-0.277 0.146c-42.434 24.714-737.69 426.667-788.051 454.645-8.246 5.055-18.231 8.049-28.914 8.049-30.904 0-55.956-25.052-55.956-55.956 0-0.207 0.001-0.413 0.003-0.62v0.031z" />
<glyph unicode="&#xe902;" glyph-name="float-arrow-left" d="M68.584 191.032c45.474-77.762 108.4-140.789 183.673-185.081l2.394-1.302c73.817-43.164 162.528-68.65 257.191-68.65s183.373 25.486 259.643 69.971l-2.452-1.321c77.666 45.595 140.592 108.622 184.761 183.975l1.305 2.409c43.182 73.813 68.679 162.524 68.679 257.191s-25.497 183.377-69.999 259.64l1.32-2.45c-45.51 77.735-108.426 140.753-183.672 185.079l-2.394 1.304c-73.817 43.164-162.528 68.65-257.191 68.65s-183.373-25.486-259.643-69.971l2.452 1.321c-77.639-45.63-140.556-108.648-184.759-183.975l-1.307-2.409c-43.182-73.813-68.679-162.524-68.679-257.191s25.497-183.377 69.999-259.64l-1.32 2.45zM243.22 478.069l302.913 302.659c7.553 7.822 18.133 12.68 29.847 12.68s22.294-4.857 29.835-12.668l0.012-0.012 67.949-68.076c7.836-7.594 12.7-18.216 12.7-29.974s-4.864-22.38-12.689-29.963l-0.011-0.010-204.482-204.736 204.482-204.673c7.839-7.605 12.705-18.237 12.705-30.006s-4.865-22.401-12.694-29.995l-0.011-0.010-67.949-68.013c-7.545-7.839-18.127-12.708-29.847-12.708s-22.302 4.869-29.834 12.695l-302.926 302.736c-7.859 7.607-12.737 18.253-12.737 30.037s4.879 22.43 12.726 30.026l0.011 0.011z" />
<glyph unicode="&#xe903;" glyph-name="float-arrow-left-red" d="M65.055 230.617c42.371-73.342 103.218-134.295 176.485-176.791 74.224-42.665 158.343-65.12 243.956-65.12s169.731 22.456 243.953 65.12c73.27 42.496 134.12 103.448 176.489 176.791 42.683 74.216 65.144 158.333 65.144 243.949s-22.462 169.733-65.144 243.952c-42.406 73.314-103.243 134.261-176.489 176.791-74.222 42.664-158.341 65.117-243.953 65.117s-169.732-22.454-243.956-65.117c-73.241-42.53-134.081-103.477-176.485-176.791-42.682-74.219-65.147-158.336-65.147-243.952s22.465-169.733 65.147-243.949v0zM230.702 502.879l287.324 287.081c3.669 3.804 8.062 6.827 12.926 8.894s10.097 3.132 15.382 3.132c5.284 0 10.518-1.066 15.382-3.132s9.258-5.090 12.926-8.894l64.453-64.573c3.813-3.69 6.837-8.108 8.909-12.993 2.066-4.884 3.138-10.133 3.138-15.437s-1.072-10.554-3.138-15.438c-2.072-4.884-5.096-9.303-8.909-12.993l-193.961-194.199 193.961-194.137c3.813-3.698 6.843-8.12 8.915-13.011s3.138-10.144 3.138-15.45c0-5.313-1.066-10.565-3.138-15.456s-5.102-9.312-8.915-13.011l-64.453-64.506c-3.665-3.813-8.062-6.849-12.926-8.921-4.865-2.066-10.095-3.138-15.382-3.138s-10.518 1.072-15.382 3.138c-4.865 2.072-9.262 5.108-12.926 8.921l-287.324 287.137c-3.822 3.696-6.866 8.123-8.941 13.018s-3.139 10.158-3.139 15.474c0 5.316 1.064 10.58 3.139 15.474s5.119 9.322 8.941 13.018v0z" />
<glyph unicode="&#xe904;" glyph-name="google-plus" horiz-adv-x="1105" d="M511.764-64.589c-0.52-0.002-1.135-0.003-1.75-0.003-283.258 0-512.884 229.626-512.884 512.884s229.626 512.884 512.884 512.884c89.944 0 174.48-23.153 247.974-63.823l-2.634 1.337c35.583-19.562 59.297-56.797 59.297-99.57 0-62.545-50.702-113.247-113.247-113.247-0.038 0-0.076 0-0.114 0h0.006c-19.734 0.031-38.29 5.049-54.484 13.859l0.602-0.299c-39.342 21.695-86.236 34.461-136.112 34.461-157.973 0-286.036-128.063-286.036-286.036s128.063-286.036 286.036-286.036c117 0 217.593 70.247 261.903 170.865l0.72 1.833h-132.348c-62.675 0-113.483 50.808-113.483 113.483s50.808 113.483 113.483 113.483h269.235c62.671-0.268 113.383-51.084 113.483-113.768v-0.010c-0.335-282.88-229.631-512.093-512.511-512.295h-0.020zM511.764 900.458c-249.998-0.067-452.635-202.746-452.635-452.753 0-250.049 202.704-452.753 452.753-452.753s452.753 202.704 452.753 452.753v0c-0.067 29.622-24.079 53.613-53.702 53.647h-269.356c-29.628 0-53.647-24.018-53.647-53.647s24.018-53.647 53.647-53.647v0h213.643l-10.376-37.729c-41.576-147.254-174.741-253.362-332.688-253.362-190.597 0-345.106 154.509-345.106 345.106s154.509 345.106 345.106 345.106c59.957 0 116.342-15.29 165.47-42.183l-1.798 0.902c7.391-4.015 16.171-6.407 25.502-6.485h0.024c0.005 0 0.011 0 0.017 0 29.628 0 53.647 24.018 53.647 53.647 0 20.258-11.229 37.893-27.801 47.022l-0.277 0.14c-61.782 34.145-135.445 54.238-213.801 54.238-0.484 0-0.967-0.001-1.45-0.002h0.075zM1069.688 822.052h-59.719v59.542c0.019 0.396 0.029 0.86 0.029 1.327 0 16.507-13.382 29.889-29.889 29.889s-29.889-13.382-29.889-29.889c0-0.467 0.011-0.931 0.032-1.393l-0.002 0.065v-59.542h-59.778c-16.496-0.1-29.83-13.496-29.83-30.006 0-0.021 0-0.042 0-0.063v0.003c0-0.001 0-0.001 0-0.002 0-16.279 13.197-29.476 29.476-29.476 0.124 0 0.249 0.001 0.373 0.002h59.759v-60.131c0.73-15.926 13.819-28.562 29.859-28.562s29.13 12.636 29.857 28.496l0.002 0.065v60.131h60.013c0.105-0.001 0.229-0.002 0.354-0.002 16.279 0 29.476 13.197 29.476 29.476 0 0.001 0 0.001 0 0.002v0c0 0.018 0 0.039 0 0.059 0 16.51-13.334 29.906-29.82 30.006h-0.010zM980.081 667.007c-0.123-0.002-0.268-0.002-0.413-0.002-19.535 0-35.371 15.836-35.371 35.371 0 0.001 0 0.002 0 0.003v0 54.236h-53.823c-19.698 0-35.666 15.968-35.666 35.666s15.968 35.666 35.666 35.666h53.823v53.647c-0.019 0.434-0.029 0.942-0.029 1.453 0 19.796 16.047 35.843 35.843 35.843s35.843-16.047 35.843-35.843c0-0.511-0.011-1.020-0.032-1.526l0.002 0.072v-53.647h54.059c19.698 0 35.666-15.968 35.666-35.666s-15.968-35.666-35.666-35.666h-53.764v-54.236c0-0.002 0-0.005 0-0.008 0-19.535-15.836-35.371-35.371-35.371-0.269 0-0.538 0.003-0.806 0.009l0.040-0.001zM890.473 816.157c-13.186 0-23.876-10.689-23.876-23.876s10.689-23.876 23.876-23.876h65.732v-66.026c0-13.186 10.689-23.876 23.876-23.876s23.876 10.689 23.876 23.876v0 66.026h66.026c13.186 0 23.876 10.689 23.876 23.876s-10.689 23.876-23.876 23.876h-66.026v65.437c0 13.186-10.689 23.876-23.876 23.876s-23.876-10.689-23.876-23.876v-65.437h-65.732z" />
<glyph unicode="&#xe905;" glyph-name="hamkari" horiz-adv-x="995" d="M888.083 581.901l100.547 100.394c4.099 4.207 6.627 9.962 6.627 16.307s-2.528 12.1-6.632 16.312l-239.879 239.879c-4.177 4.187-9.952 6.777-16.333 6.777s-12.156-2.59-16.332-6.776l-46.957-47.059c-18.652 9.428-40.66 14.95-63.958 14.95-39.791 0-75.819-16.107-101.922-42.156l-105.139-105.037c-8.326 0.839-17.995 1.318-27.775 1.318-6.030 0-12.017-0.182-17.956-0.541l0.817 0.039-73.496 73.445c-4.188 4.162-9.96 6.735-16.333 6.735s-12.145-2.573-16.334-6.736l-239.883-239.883c-4.099-4.207-6.627-9.962-6.627-16.307s2.528-12.1 6.632-16.312l-0.005 0.005 36.238-36.187-14.291-143.931c-4.351-10.065-6.882-21.784-6.882-34.094 0-48.54 39.349-87.89 87.89-87.89 0.051 0 0.102 0 0.153 0h4.075c0-1.327-0.51-2.654-0.51-3.981 0-0.075 0-0.164 0-0.253 0-24.265 9.961-46.204 26.017-61.951l0.014-0.014c15.882-15.772 37.765-25.52 61.925-25.52 0.121 0 0.241 0 0.362 0.001h-0.019c1.021 0 2.552 0 4.083 0-0.062-1.234-0.097-2.68-0.097-4.134 0-48.455 39.281-87.736 87.736-87.736 0.052 0 0.104 0 0.157 0h4.075c-0.062-1.234-0.097-2.68-0.097-4.134 0-48.455 39.281-87.736 87.736-87.736 0.052 0 0.104 0 0.157 0h-0.008c0.009 0 0.019 0 0.029 0 17.405 0 33.628 5.059 47.28 13.787l-0.353-0.211c0.189-0.496 0.55-0.891 1.009-1.118l0.012-0.005 50.018-50.069c16.286-16.21 38.745-26.23 63.544-26.23 49.679 0 89.966 40.214 90.084 89.865v4.809q2.297 0 4.594 0c0.122-0.001 0.266-0.001 0.41-0.001 49.386 0 89.421 40.035 89.421 89.421 0 0.198-0.001 0.395-0.002 0.593v-0.030 5.104q2.297 0 4.594 0c0.176-0.001 0.384-0.002 0.592-0.002 24.713 0 47.073 10.071 63.201 26.332l0.006 0.006c16.33 16.261 26.46 38.737 26.54 63.58v0.015c0.013 0.239 0.021 0.518 0.021 0.799 0 1.422-0.194 2.799-0.557 4.106l0.026-0.108h5.104c49.608 0.041 89.808 40.266 89.808 89.88 0 24.916-10.138 47.464-26.515 63.744l-0.004 0.004-53.591 53.693c29.102 43.39 46.446 96.791 46.446 154.243 0 0.142 0 0.285 0 0.427v-0.022c0.51-0.715 0.51-0.612 0.51-0.408zM732.413 905.898l207.219-207.321-58.185-57.981c-11.643 55.939-38.723 104.282-76.542 141.821l-98.012 98.063zM80.642 333.493c-7.567 7.58-12.246 18.045-12.246 29.603s4.679 22.022 12.246 29.603l-0.001-0.001 34.707 34.911c7.583 7.563 18.046 12.242 29.601 12.249h0.001c0.131 0.002 0.286 0.002 0.441 0.002 11.42 0 21.745-4.688 29.155-12.245l0.006-0.007c7.567-7.58 12.246-18.045 12.246-29.603s-4.679-22.022-12.246-29.603l0.001 0.001-6.635-6.737-28.072-28.174c-7.58-7.567-18.045-12.246-29.603-12.246s-22.022 4.679-29.603 12.246l0.001-0.001zM202.115 229.373c-0.131-0.002-0.286-0.002-0.441-0.002-11.42 0-21.745 4.688-29.155 12.245l-0.006 0.007c-7.567 7.58-12.246 18.045-12.246 29.603s4.679 22.022 12.246 29.603l66.35 66.35c7.583 7.563 18.046 12.242 29.601 12.249h0.001c0.131 0.002 0.286 0.002 0.441 0.002 11.42 0 21.745-4.688 29.155-12.245l0.006-0.007c7.567-7.58 12.246-18.045 12.246-29.603s-4.679-22.022-12.246-29.603l-15.311-15.311-51.039-51.345c-7.556-7.387-17.905-11.944-29.318-11.944-0.1 0-0.2 0-0.3 0.001h0.015zM293.986 137.503c-0.131-0.002-0.286-0.002-0.441-0.002-11.42 0-21.745 4.688-29.155 12.245l-0.006 0.007c-7.57 7.588-12.25 18.062-12.25 29.628s4.681 22.040 12.251 29.629l66.35 66.35 28.072 27.918c7.417 7.563 17.742 12.252 29.162 12.252 0.155 0 0.31-0.001 0.465-0.003h-0.024c11.557-0.007 22.020-4.686 29.604-12.25l-0.001 0.001c7.57-7.588 12.25-18.062 12.25-29.628s-4.681-22.040-12.251-29.629l0.001 0.001-28.072-27.918-66.351-66.351c-7.583-7.563-18.046-12.242-29.601-12.249h-0.001zM356.254 57.933c-7.567 7.58-12.246 18.045-12.246 29.603s4.679 22.022 12.246 29.603l66.35 66.35c7.476 7.029 17.571 11.348 28.675 11.348 23.143 0 41.903-18.761 41.903-41.903 0-11.116-4.329-21.221-11.392-28.722l0.020 0.021-66.351-66.351c-7.578-7.551-18.032-12.22-29.577-12.22-11.57 0-22.046 4.689-29.628 12.271v0zM875.323 309.505c0-0.021 0-0.045 0-0.070 0-12.080-4.874-23.021-12.762-30.965l0.003 0.003c-8.001-7.909-18.99-12.81-31.124-12.862h-0.010c-0.052 0-0.113 0-0.175 0-12.097 0-23.046 4.917-30.957 12.861l-0.001 0.001-13.27 13.168c-4.177 4.187-9.952 6.777-16.333 6.777s-12.156-2.59-16.332-6.776v0c-4.030-4.238-6.509-9.983-6.509-16.307s2.479-12.069 6.518-16.317l-0.009 0.010 13.27-13.168c7.957-7.925 12.881-18.891 12.881-31.006 0-24.168-19.592-43.759-43.759-43.759-12.052 0-22.966 4.872-30.88 12.755l0.001-0.001-13.27 13.168c-4.188 4.162-9.96 6.735-16.333 6.735s-12.145-2.573-16.334-6.736l0.001 0.001c-4.247-4.139-6.881-9.916-6.881-16.307s2.634-12.168 6.876-16.302l0.005-0.005 13.27-13.168c7.924-7.95 12.824-18.919 12.824-31.032 0-24.277-19.681-43.958-43.958-43.958-12.164 0-23.174 4.941-31.133 12.925l-0.001 0.001-13.27 13.168c-4.188 4.162-9.96 6.735-16.333 6.735s-12.145-2.573-16.334-6.736l0.001 0.001c-4.033-4.246-6.514-9.999-6.514-16.333s2.481-12.087 6.523-16.343l-0.010 0.010 13.27-13.168c7.888-7.957 12.762-18.912 12.762-31.006s-4.874-23.050-12.765-31.009l0.003 0.003c-7.893-7.922-18.814-12.824-30.879-12.824s-22.985 4.902-30.877 12.823l-0.001 0.001-49.508 49.61 47.466 47.671c15.851 15.965 25.648 37.959 25.648 62.242s-9.797 46.278-25.653 62.247l0.005-0.005c-11.882 11.927-27.208 20.414-44.361 23.845l-0.554 0.092c4.198 9.638 6.641 20.866 6.641 32.664 0 0.341-0.002 0.682-0.006 1.023v-0.052c-0.023 48.607-39.433 88.001-88.043 88.001-12.057 0-23.547-2.423-34.011-6.81l0.58 0.216c-3.488 17.658-12.004 32.931-23.976 44.698l-0.012 0.012c-15.713 15.767-37.448 25.523-61.463 25.523-0.283 0-0.566-0.001-0.848-0.004h0.043c-0.125 0.001-0.273 0.001-0.421 0.001-13.393 0-26.065-3.089-37.342-8.594l0.504 0.222c-4.090 16.873-12.496 31.394-23.984 42.818l-0.004 0.004c-15.713 15.767-37.448 25.523-61.463 25.523-0.283 0-0.566-0.001-0.848-0.004h0.043c-0.102 0-0.223 0.001-0.343 0.001-24.159 0-46.042-9.748-61.93-25.525l0.005 0.005-1.021-1.327 8.677 88.451c0.076 0.699 0.119 1.511 0.119 2.332 0 6.349-2.582 12.095-6.753 16.245l-0.001 0.001-27.561 27.612 207.219 207.321 64.82-64.718c4.158-4.167 9.907-6.745 16.258-6.745 0.206 0 0.411 0.003 0.615 0.008l-0.030-0.001h2.042c7.27 0.768 15.706 1.206 24.244 1.206s16.974-0.438 25.286-1.293l-1.042 0.087-14.291-146.942c-0.276-2.698-0.434-5.83-0.434-8.999 0-48.352 36.681-88.137 83.735-93.046l0.403-0.034q4.594-0.459 9.187-0.459c48.354 0.088 88.090 36.866 92.859 83.974l0.032 0.394 6.125 65.024 289.392-288.984c7.786-7.839 12.636-18.602 12.76-30.498v-0.024zM807.951 460.224l-224.062 224.062c-1.37 1.305-2.871 2.498-4.474 3.55l-0.12 0.074 4.083 45.425c0.078 0.711 0.123 1.535 0.123 2.369 0 11.819-8.947 21.548-20.437 22.784l-0.101 0.009c-0.643 0.063-1.391 0.098-2.147 0.098-12.040 0-21.968-9.043-23.362-20.708l-0.011-0.112-16.333-168.889c-2.412-24.055-22.551-42.68-47.040-42.68-1.588 0-3.158 0.078-4.706 0.231l0.196-0.016c-24.026 2.62-42.557 22.798-42.557 47.304 0 1.513 0.071 3.009 0.209 4.486l-0.014-0.189 17.353 178.637 91.36 91.258c17.692 17.715 42.145 28.673 69.158 28.673s51.466-10.958 69.157-28.672l97.996-98.098c42.836-42.983 69.32-102.286 69.32-167.774 0-44.972-12.489-87.026-34.189-122.884l0.596 1.062z" />
<glyph unicode="&#xe906;" glyph-name="home" horiz-adv-x="1078" d="M556.902 952.951l512.78-476.945c4.9-4.874 7.933-11.621 7.933-19.077 0-6.906-2.602-13.204-6.879-17.967l0.022 0.025c-4.522-5.033-11.051-8.184-18.317-8.184-0.181 0-0.362 0.002-0.542 0.006h0.027v-0.377h-129.675v-468.12c-0.061-14.526-11.835-26.281-26.362-26.312h-203.931c-14.53 0.030-26.304 11.786-26.365 26.306v359.974h-252.893v-359.915c-0.061-14.526-11.835-26.281-26.362-26.312h-204.469c-14.322 0.272-25.827 11.946-25.827 26.307 0 0.002 0 0.003 0 0.005v0 468.12h-129.675c-14.36 0.41-25.845 12.149-25.845 26.57 0 8.003 3.537 15.18 9.133 20.053l0.032 0.027 255.583 237.342 256.121 238.903c4.593 4.267 10.77 6.886 17.557 6.886 6.98 0 13.314-2.769 17.962-7.269l-0.007 0.007zM777.51 676.33l-238.365 222.223-446.060-415.551h88.781c14.53-0.030 26.304-11.786 26.365-26.306v-468.126h152.274v359.646c-0.001 0.096-0.002 0.21-0.002 0.323 0 14.297 11.545 25.898 25.821 25.988h305.632c14.322-0.272 25.827-11.946 25.827-26.307 0-0.002 0-0.003 0-0.005v0-359.592h152.274v468.12c-0.001 0.096-0.002 0.209-0.002 0.323 0 14.286 11.551 25.875 25.824 25.935h89.326z" />
<glyph unicode="&#xe907;" glyph-name="instagram" d="M762.057-63.455h-500.713c-144.359 0.248-261.289 117.331-261.289 261.725 0 0 0 0 0 0v0 500.55c0.31 144.159 117.121 260.932 261.265 261.18h500.737c144.191-0.217 261.034-117.002 261.343-261.15v-500.58c0 0 0 0 0 0 0-144.413-116.961-261.508-261.322-261.725h-0.021zM261.344 901.657c-111.962-0.155-202.682-90.876-202.837-202.822v-500.565c0.155-111.962 90.876-202.682 202.822-202.837h500.728c111.974 0.124 202.713 90.863 202.837 202.825v500.562c-0.155 111.962-90.876 202.682-202.822 202.837h-500.728zM994.12 576.136v0c16.111 0 29.171 13.061 29.171 29.171s-13.061 29.171-29.171 29.171h-360.417c-16.111 0-29.171-13.061-29.171-29.171s13.061-29.171 29.171-29.171h360.417zM382.119 576.136v0c16.111 0 29.171 13.061 29.171 29.171s-13.061 29.171-29.171 29.171h-352.838c-16.111 0-29.171-13.061-29.171-29.171s13.061-29.171 29.171-29.171h352.838zM511.673 220.626c-125.806 0.093-227.755 102.1-227.755 227.919 0 125.876 102.043 227.919 227.919 227.919s227.919-102.043 227.919-227.919v0c-0.093-125.896-102.174-227.919-228.083-227.919v0zM511.673 618.121c-93.654 0-169.576-75.922-169.576-169.576s75.922-169.576 169.576-169.576c93.654 0 169.576 75.922 169.576 169.576v0c-0.217 93.567-76.009 169.359-169.555 169.576h-0.021zM842.101 651.382h-131.571c-16.148 0.031-29.226 13.128-29.226 29.28 0 0.058 0 0.115 0 0.172v-0.009 131.408c0 0.049 0 0.106 0 0.164 0 16.152 13.079 29.25 29.223 29.28h131.574c16.148-0.031 29.226-13.128 29.226-29.28 0-0.058 0-0.115 0-0.172v0.009-131.408c0-0.032 0-0.071 0-0.109 0-16.163-13.072-29.273-29.22-29.335h-0.006zM739.755 710.27h73.119v73.065h-73.119v-73.065z" />
<glyph unicode="&#xe908;" glyph-name="magalat-menu" horiz-adv-x="768" d="M767.845 753.074c-0.055 6.559-2.814 12.462-7.215 16.659l-0.009 0.009-183.189 183.498c-4.39 4.293-10.398 6.948-17.025 6.966h-509.837c-27.881-0.029-50.482-22.594-50.57-50.459v-922.815c0.088-27.873 22.689-50.438 50.568-50.467h666.707c27.881 0.029 50.482 22.594 50.57 50.459v766.15zM584.14 878.416l101.657-101.605h-99.077c-0.031-0.001-0.067-0.002-0.103-0.002-1.368 0-2.477 1.109-2.477 2.477 0 0.001 0 0.002 0 0.002v0 99.128zM719.855-13.017c0-0.016 0.001-0.035 0.001-0.054 0-1.368-1.109-2.477-2.477-2.477-0.037 0-0.073 0.001-0.109 0.002h-666.699c-0.031-0.001-0.067-0.002-0.104-0.002-1.368 0-2.477 1.109-2.477 2.477 0 0.019 0 0.038 0.001 0.057v-0.003 922.704c0 0.016-0.001 0.035-0.001 0.054 0 1.368 1.109 2.477 2.477 2.477 0.037 0 0.073-0.001 0.109-0.002h485.575v-133.031c0.088-27.873 22.689-50.438 50.568-50.467h133.137v-741.838zM596.009 632.324h-424.173c-0.332 0.016-0.721 0.026-1.112 0.026-13.252 0-23.995-10.743-23.995-23.995s10.743-23.995 23.995-23.995c0.391 0 0.78 0.009 1.167 0.028l-0.055-0.002h424.173c0.332-0.016 0.721-0.026 1.112-0.026 13.252 0 23.995 10.743 23.995 23.995s-10.743 23.995-23.995 23.995c-0.391 0-0.78-0.009-1.167-0.028l0.055 0.002zM596.009 487.837h-424.173c-0.332 0.016-0.721 0.026-1.112 0.026-13.252 0-23.995-10.743-23.995-23.995s10.743-23.995 23.995-23.995c0.391 0 0.78 0.009 1.167 0.028l-0.055-0.002h424.173c0.666-0.066 1.44-0.103 2.223-0.103 13.252 0 23.995 10.743 23.995 23.995s-10.743 23.995-23.995 23.995c-0.783 0-1.557-0.037-2.32-0.111l0.097 0.008zM596.009 343.35h-424.173c-0.332 0.016-0.721 0.026-1.112 0.026-13.252 0-23.995-10.743-23.995-23.995s10.743-23.995 23.995-23.995c0.391 0 0.78 0.009 1.167 0.028l-0.055-0.002h424.173c0.882-0.115 1.903-0.181 2.939-0.181 13.252 0 23.995 10.743 23.995 23.995s-10.743 23.995-23.995 23.995c-1.036 0-2.056-0.066-3.057-0.193l0.119 0.012zM383.923 198.863h-212.086c-0.332 0.016-0.721 0.026-1.112 0.026-13.252 0-23.995-10.743-23.995-23.995s10.743-23.995 23.995-23.995c0.391 0 0.78 0.009 1.167 0.028l-0.055-0.002h212.086c11.657 1.772 20.486 11.723 20.486 23.737s-8.829 21.966-20.353 23.72l-0.133 0.017z" />
<glyph unicode="&#xe909;" glyph-name="moshaver-1" horiz-adv-x="1097" d="M839.124 331.353h-173.146c-67.563-0.203-132.334-41.757-180.186-115.603s-74.904-173.992-75.256-278.594h684.522c-0.424 104.704-27.568 204.902-75.513 278.74-47.945 73.845-112.801 115.346-180.421 115.457v0zM753.050 958.964c35.123-0.136 69.435-16.384 98.604-46.697 29.162-30.313 51.866-73.331 65.251-123.615 13.378-50.283 16.837-105.576 9.925-158.898-6.905-53.323-23.859-102.277-48.735-140.684-24.869-38.407-56.525-64.542-90.99-75.102-34.458-10.56-70.16-5.075-102.604 15.768s-60.17 56.106-79.676 101.334c-19.506 45.228-29.918 98.39-29.918 152.774 0.007 36.187 4.623 72.018 13.588 105.437s22.102 63.774 38.655 89.322c16.553 25.548 36.198 45.789 57.811 59.564s44.769 20.813 68.139 20.712l-0.051 0.084zM489.89 487.48v384.911c-0.13 18.003-4.815 35.205-13.049 47.92s-19.359 19.926-30.988 20.082h-401.318c-11.629-0.156-22.752-7.367-30.985-20.082s-12.918-29.916-13.049-47.92v-384.911c0.145-17.988 4.834-35.171 13.066-47.868s19.349-19.894 30.968-20.050h276.208l63.028-97.493c1.23-2.178 2.779-3.871 4.517-4.933s3.618-1.466 5.478-1.175c1.852-0.094 3.698 0.399 5.423 1.448s3.294 2.634 4.609 4.655c1.315 2.020 2.349 4.432 3.040 7.094s1.023 5.518 0.976 8.386v81.934h38.038c11.619 0.156 22.736 7.354 30.968 20.051s12.924 29.879 13.069 47.867v0.084zM102.563 607.846c-5.401-0.092-10.758 1.484-15.76 4.639s-9.546 7.823-13.368 13.733c-3.822 5.909-6.845 12.94-8.89 20.68s-3.069 16.034-3.016 24.395c0.414 16.63 4.872 32.405 12.483 44.157s17.81 18.61 28.551 19.206c5.554 0.448 11.11-0.859 16.326-3.841s9.988-7.574 14.022-13.502c4.033-5.927 7.244-13.063 9.439-20.974s3.328-16.436 3.328-25.046c0-8.61-1.133-17.129-3.328-25.041s-5.406-15.046-9.439-20.974c-4.034-5.928-8.805-10.525-14.022-13.507s-10.772-4.289-16.326-3.841v-0.084zM245.666 607.846c-8.103 0.017-16.020 3.754-22.752 10.737s-11.976 16.898-15.069 28.494c-3.093 11.595-3.899 24.346-2.312 36.648s5.495 23.601 11.229 32.466c5.734 8.865 13.036 14.901 20.983 17.343s16.186 1.179 23.671-3.626c7.485-4.805 13.883-12.94 18.384-23.372s6.904-22.696 6.904-35.242c-0.073-16.799-4.424-32.876-12.107-44.74s-18.080-18.556-28.932-18.623v-0.084zM387.771 607.846c-5.401-0.092-10.762 1.484-15.764 4.639s-9.546 7.823-13.368 13.733c-3.822 5.909-6.843 12.94-8.887 20.68s-3.072 16.034-3.020 24.395c-0.022 12.573 2.364 24.876 6.86 35.347s10.898 18.642 18.394 23.477c7.496 4.835 15.754 6.116 23.722 3.684s15.291-8.47 21.041-17.348c5.75-8.879 9.667-20.2 11.259-32.53s0.788-25.112-2.315-36.732c-3.103-11.619-8.362-21.552-15.113-28.541s-14.689-10.721-22.81-10.721v-0.084z" />
<glyph unicode="&#xe90a;" glyph-name="pardakht-home" horiz-adv-x="1097" d="M1075.094 787.293l-120.074 150.569c-11.027 13.765-27.834 22.505-46.683 22.505-0.030 0-0.060 0-0.091 0h-620.523c-18.873-0.006-35.705-8.742-46.678-22.388l-0.090-0.116-120.074-150.569c-13.483-18.727-21.89-41.909-22.792-67.004l-0.006-0.216v-109.958c9.406 14.762 23.247 25.973 39.627 31.863l0.544 0.171c2.974 36.008 28.255 65.378 61.868 74.417l0.588 0.135c6.59 1.861 14.157 2.93 21.975 2.93 28.995 0 54.553-14.715 69.614-37.084l0.19-0.299c4.106 0.722 8.848 1.148 13.685 1.173h0.023c14.321-0.037 27.72-3.953 39.211-10.753l-0.36 0.197 66.561 17.373c7.632 2.041 16.395 3.217 25.432 3.225h0.005c46.789-0.031 86.138-31.845 97.629-75.018l0.16-0.706 130.337-500.821c2.082-7.659 3.278-16.453 3.278-25.526 0-46.767-31.782-86.112-74.925-97.613l-0.705-0.16-58.204-15.101h488.579c41.255 0 74.698 33.443 74.698 74.698v0 669.203c-1.339 24.49-9.683 46.796-23.043 65.23l0.245-0.355zM160.172 788.539l39.731 49.848h271.229l26.756 43.983h-262.946l29.322 36.653c5.486 6.903 13.88 11.289 23.3 11.289 0.030 0 0.060 0 0.089 0h620.523c0.078 0.001 0.17 0.001 0.262 0.001 9.366 0 17.706-4.391 23.074-11.227l0.048-0.063 29.322-36.653h-267.637l14.661-43.983h287.869l39.731-49.848h-875.337zM172.267 604.47l-16.787-4.325c-14.484-3.878-24.975-16.884-24.975-32.341 0-2.992 0.393-5.891 1.13-8.65l-0.053 0.234v-0.66c3.844-14.488 16.84-24.991 32.288-24.991 3.011 0 5.928 0.399 8.703 1.147l-0.233-0.054 142.212 36.653c14.518 3.853 25.043 16.877 25.043 32.359 0 2.985-0.391 5.879-1.125 8.633l0.053-0.233v0.66c-3.871 14.493-16.882 24.992-32.345 24.992-3.016 0-5.94-0.4-8.719-1.149l0.234 0.054-16.714-4.325c-1.262-0.34-2.712-0.536-4.207-0.536-7.768 0-14.304 5.276-16.219 12.44l-0.027 0.117v0.513c-4.512 16.915-19.695 29.171-37.74 29.171-3.469 0-6.833-0.453-10.034-1.303l0.272 0.061h-0.88c-16.879-4.475-29.116-19.615-29.116-37.612 0-3.489 0.46-6.871 1.322-10.088l-0.062 0.272v-0.586c0.286-1.16 0.45-2.492 0.45-3.863 0-7.737-5.234-14.251-12.355-16.196l-0.118-0.027zM218.083 651.312c1.265 0.34 2.717 0.535 4.214 0.535 9.312 0 16.86-7.549 16.86-16.86s-7.549-16.86-16.86-16.86c-7.792 0-14.35 5.286-16.283 12.469l-0.027 0.118c-0.398 1.368-0.627 2.939-0.627 4.564 0 7.856 5.349 14.462 12.604 16.375l0.118 0.026zM427.736 136.196c0.224-0.843 0.352-1.81 0.352-2.808 0-5.227-3.53-9.63-8.336-10.955l-0.080-0.019-206.941-53.806c-0.838-0.223-1.8-0.351-2.791-0.351-5.213 0-9.6 3.533-10.899 8.335l-0.018 0.079-2.859 10.922c-0.223 0.838-0.351 1.8-0.351 2.791 0 5.213 3.533 9.6 8.335 10.899l0.079 0.018 206.941 53.806c0.838 0.223 1.8 0.351 2.791 0.351 5.213 0 9.6-3.533 10.899-8.335l0.018-0.079zM452.953 352.007l2.859-10.922c0.223-0.838 0.351-1.8 0.351-2.791 0-5.213-3.533-9.6-8.335-10.899l-0.079-0.018-283.178-73.305c-0.838-0.223-1.8-0.351-2.791-0.351-5.213 0-9.6 3.533-10.899 8.335l-0.018 0.079-2.859 10.922c-0.223 0.838-0.351 1.8-0.351 2.791 0 5.213 3.533 9.6 8.335 10.899l0.079 0.018 283.178 73.305c0.785 0.195 1.687 0.307 2.614 0.307 5.063 0 9.347-3.333 10.779-7.924l0.021-0.080zM422.238 425.312l-283.178-73.305c-0.838-0.223-1.8-0.351-2.791-0.351-5.213 0-9.6 3.533-10.899 8.335l-0.018 0.079-2.859 10.922c-0.223 0.838-0.351 1.8-0.351 2.791 0 5.213 3.533 9.6 8.335 10.899l0.079 0.018 283.178 73.305c0.838 0.223 1.8 0.351 2.791 0.351 5.213 0 9.6-3.533 10.899-8.335l0.018-0.079 2.859-10.922c0.161-0.715 0.253-1.535 0.253-2.378 0-5.177-3.485-9.541-8.237-10.872l-0.079-0.019zM416.007 226.508l-228.712-59.524c-0.853-0.233-1.833-0.367-2.844-0.367-5.204 0-9.581 3.545-10.847 8.352l-0.017 0.078-2.786 10.849c-0.237 0.863-0.373 1.855-0.373 2.878 0 5.194 3.508 9.569 8.284 10.885l0.079 0.019 228.712 59.45c0.838 0.223 1.8 0.351 2.791 0.351 5.213 0 9.6-3.533 10.899-8.335l0.018-0.079 2.859-10.849c0.223-0.838 0.351-1.8 0.351-2.791 0-5.213-3.533-9.6-8.335-10.899l-0.079-0.018zM621.921 105.628l-130.337 500.894c-6.501 24.392-28.393 42.067-54.413 42.067-5.047 0-9.94-0.665-14.593-1.912l0.393 0.090-66.414-17.227c1.433-2.913 2.734-6.348 3.714-9.916l0.098-0.42c1.218-4.363 1.917-9.374 1.917-14.548 0-25.907-17.545-47.717-41.402-54.194l-0.393-0.091-140.159-36.653c-4.593-1.324-9.869-2.086-15.323-2.086-24.484 0-45.384 15.35-53.599 36.952l-0.131 0.394c-1.612 4.648-2.688 10.025-2.999 15.605l-0.007 0.155-66.488-17.3c-24.423-6.51-42.12-28.43-42.12-54.484 0-5.022 0.657-9.89 1.891-14.523l-0.089 0.393 130.337-500.894c6.544-24.418 28.475-42.104 54.536-42.104 5.003 0 9.853 0.652 14.471 1.875l-0.393-0.089 381.187 99.182c24.402 6.555 42.071 28.478 42.071 54.528 0 5.059-0.666 9.962-1.916 14.627l0.090-0.394zM186.268-7.702l-113.33 435.579 381.187 99.109 113.33-435.506z" />
<glyph unicode="&#xe90b;" glyph-name="phone" horiz-adv-x="1021" d="M807.564 325.303c-18.078 20.16-44.013 32.959-72.946 33.549l-0.104 0.002c-29.217-0.74-55.343-13.377-73.826-33.227l-0.058-0.063-68.301-68.093c-5.583 3.026-11.218 5.844-16.645 8.609-7.775 3.913-15.080 7.566-21.393 11.479-68.845 45.205-127.55 98.915-176.66 160.604l-1.164 1.514c-22.199 26.708-41.709 56.951-57.349 89.41l-1.143 2.632c17.741 16.227 34.125 33.081 50.143 49.309 6.053 6.053 12.105 12.314 18.158 18.367 20.908 18.272 34.041 44.988 34.041 74.772s-13.134 56.499-33.925 74.672l-0.116 0.099-59.014 59.014c-6.679 6.679-13.619 13.619-20.089 20.506-12.94 13.41-26.559 27.237-40.595 40.23-18.302 19.185-43.904 31.267-72.33 31.775l-0.093 0.001c-28.826-0.623-54.724-12.662-73.45-31.759l-0.434-0.434-73.467-74.145c-26.363-25.903-43.704-60.911-46.923-99.924l-0.038-0.571c-0.249-5.137-0.39-11.157-0.39-17.211 0-51.621 10.305-100.835 28.971-145.698l-0.926 2.512c41.339-106.052 97.18-197.389 166.272-276.904l-0.971 1.142c91.93-110.067 204.706-199.369 332.679-262.562l5.958-2.66c55.172-29.070 119.611-49.041 187.897-56.011l2.241-0.185c4.54 0 9.288-0.417 13.619-0.417 1.149-0.029 2.502-0.046 3.858-0.046 47.85 0 90.879 20.637 120.674 53.496l0.122 0.137c0 0.47 0.678 0.678 0.887 1.096 12.138 14.016 24.476 26.783 37.471 38.852l0.306 0.281c9.288 8.87 18.836 18.158 28.124 27.863 19.554 19.040 31.901 45.398 32.609 74.64l0.003 0.131c-0.589 29.328-13.26 55.585-33.223 74.084l-0.067 0.061zM884.893 97.753s0 0 0 0c-8.401-9.079-17.062-17.323-26.089-26.089-14.636-13.692-28.266-27.801-41.157-42.571l-0.585-0.685c-19.175-21.194-46.781-34.453-77.484-34.453-1.321 0-2.637 0.025-3.946 0.073l0.189-0.006c-3.235 0-6.731 0-9.966 0-62.581 6.625-119.669 24.591-171.079 51.843l2.543-1.23c-126.119 62.062-232.32 146.176-317.679 248.31l-1.235 1.519c-64.056 73.66-116.607 159.474-153.526 253.158l-2.070 5.959c-15.5 35.539-24.519 76.946-24.519 120.459 0 5.238 0.131 10.445 0.389 15.619l-0.029-0.727c1.818 25.3 12.873 47.717 29.771 64.157l0.023 0.022 73.676 73.676c8.329 8.837 19.864 14.571 32.738 15.334l0.134 0.006c12.469-0.813 23.478-6.472 31.271-15.092l0.036-0.040 0.678-0.626c13.149-12.314 25.672-25.098 38.873-38.716 6.679-6.888 13.619-13.827 20.506-20.871l59.014-59.014c10.447-7.584 17.163-19.757 17.163-33.498s-6.715-25.914-17.043-33.416l-0.119-0.082c-6.261-6.261-12.314-12.523-18.575-18.575-18.158-18.628-35.429-35.899-54.265-52.752-0.389-0.326-0.732-0.685-1.032-1.079l-0.012-0.016c-8.881-8.104-14.431-19.727-14.431-32.646 0-5.908 1.161-11.546 3.267-16.696l-0.107 0.295 0.678-1.931c19.058-43.541 42.44-81.074 70.385-114.676l-0.623 0.77c54.136-68.221 117.514-126.105 188.885-172.783l3.027-1.858c7.149-4.499 15.847-9.328 24.798-13.724l1.761-0.781c7.775-3.861 15.132-7.566 21.393-11.427 0.887-0.47 1.722-1.096 2.609-1.513 6.111-3.414 13.408-5.425 21.174-5.425 13.136 0 24.93 5.752 32.998 14.874l0.041 0.047 73.885 73.937c8.18 9.092 19.632 15.101 32.486 16.163l0.177 0.012c12.601-0.687 23.698-6.598 31.252-15.586l0.055-0.067 119.488-119.541c10.378-7.871 17.011-20.211 17.011-34.099 0-13.797-6.546-26.064-16.702-33.867l-0.101-0.075zM551.734 716.066c115.816-20.626 205.828-110.638 226.205-224.771l0.249-1.683c2.338-13.847 14.24-24.263 28.576-24.263 0.043 0 0.086 0 0.129 0h-0.007c1.889 0.052 3.69 0.221 5.455 0.501l-0.237-0.031c13.914 2.41 24.363 14.391 24.363 28.813 0 1.729-0.15 3.423-0.438 5.069l0.025-0.175c-24.868 140.182-133.814 249.147-271.956 273.741l-2.032 0.3c-1.456 0.256-3.133 0.403-4.844 0.403-14.364 0-26.317-10.328-28.835-23.964l-0.028-0.18c-0.311-1.592-0.489-3.423-0.489-5.296 0-14.183 10.214-25.98 23.688-28.437l0.177-0.027zM1021.026 507.979c-40.982 230.814-220.345 410.229-447.784 450.795l-3.35 0.495c-0.812 0.080-1.756 0.126-2.71 0.126-16.109 0-29.168-13.059-29.168-29.168 0-13.682 9.42-25.163 22.128-28.313l0.2-0.042c206.322-36.571 366.69-196.956 402.795-400.301l0.439-2.986c2.36-13.822 14.25-24.211 28.567-24.211 0.064 0 0.129 0 0.193 0.001h-0.010c1.854 0.014 3.657 0.185 5.411 0.498l-0.193-0.029c13.649 2.33 23.908 14.070 23.908 28.207 0 1.741-0.156 3.445-0.453 5.1l0.026-0.174z" />
<glyph unicode="&#xe90c;" glyph-name="search" d="M1011.397 8.748l-246.11 246.18c60.804 73.802 97.675 169.303 97.675 273.416 0 238.319-193.196 431.515-431.515 431.515s-431.515-193.196-431.515-431.515c0-238.319 193.196-431.515 431.515-431.515 104.112 0 199.613 36.871 274.157 98.268l-0.741-0.593 246.18-245.97c7.784-8.18 18.753-13.268 30.911-13.268 23.55 0 42.64 19.091 42.64 42.64 0 12.123-5.059 23.064-13.18 30.827l-0.016 0.015zM431.515 182.81c-190.889 0.080-345.604 154.844-345.604 345.744 0 190.949 154.795 345.744 345.744 345.744s345.744-154.795 345.744-345.744c0-0.049 0-0.098 0-0.148v0.008c-0.239-190.874-154.988-345.525-345.877-345.604h-0.007z" />
<glyph unicode="&#xe90d;" glyph-name="shop" horiz-adv-x="951" d="M271.355 285.187h563.834c64.054 0.185 115.908 52.153 115.908 116.233 0 0 0 0 0 0v0 242.703c0 0.433-0.542 0.867-0.542 1.246 0.004 0.045 0.006 0.098 0.006 0.152 0 0.513-0.21 0.977-0.548 1.31v0 1.3c-0.337 0.238-0.554 0.626-0.554 1.065 0 0.064 0.005 0.127 0.013 0.188l-0.001-0.007c-0.173 0.38-0.356 0.865-0.514 1.361l-0.028 0.101c-0.33 0.227-0.543 0.603-0.543 1.028 0 0.019 0 0.038 0.001 0.057v-0.003c-0.542 0.433-0.542 0.812-1.083 1.246 0.006 0.042 0.009 0.091 0.009 0.14 0 0.403-0.22 0.754-0.545 0.941l-0.005 0.003c0 0.379-0.542 0.812-0.542 1.246s-0.542 0.65-1.083 1.029-0.542 0.65-0.542 1.083c-0.493 0.179-0.88 0.548-1.079 1.017l-0.005 0.012c-0.176 0.461-0.583 0.796-1.076 0.866l-0.007 0.001c0 0.379-0.542 0.596-0.542 1.029-0.45 0.151-0.822 0.435-1.079 0.805l-0.005 0.007c-0.542 0-1.083 0.65-1.625 0.867-0.268 0.33-0.643 0.563-1.072 0.648l-0.012 0.002c-0.29 0.347-0.652 0.622-1.065 0.805l-0.019 0.007c-0.44 0.087-0.815 0.32-1.081 0.647l-0.003 0.003-1.625 0.65c-0.275 0.309-0.649 0.524-1.072 0.594l-0.011 0.001c-0.414 0.040-0.785 0.197-1.087 0.437l0.004-0.003c-0.474 0.232-1.026 0.387-1.609 0.432l-0.016 0.001c-0.163-0.028-0.35-0.044-0.542-0.044s-0.379 0.016-0.561 0.047l0.020-0.003c-0.244 0.050-0.525 0.079-0.812 0.079s-0.568-0.029-0.839-0.083l0.027 0.005c-0.163 0.028-0.35 0.044-0.542 0.044s-0.379-0.016-0.561-0.047l0.020 0.003-714.948 98.684v103.613c0 0.596-0.542 1.246-0.542 1.896v1.679c0 0.433-0.542 0.596-0.542 1.029s-0.542 1.246-0.542 1.896v0.867c-0.542 0.596-0.542 1.029-1.083 1.679 0.001 0.014 0.001 0.030 0.001 0.046 0 0.352-0.224 0.652-0.537 0.765l-0.006 0.002c0 0.433-0.542 0.867-0.542 1.246-0.331 0.19-0.551 0.541-0.551 0.943 0 0.049 0.003 0.098 0.010 0.146l-0.001-0.006c-0.542 0.433-0.542 0.65-1.083 1.029s-0.542 0.867-0.542 1.3-0.542 0.433-0.542 0.596l-1.625 1.3s0 0.433-0.542 0.596c-0.423 0.556-0.969 0.998-1.599 1.289l-0.026 0.011s-0.542 0.433-0.542 0.65c-0.493 0.179-0.88 0.548-1.079 1.017l-0.005 0.012c-0.876 0.359-1.588 0.704-2.278 1.086l0.111-0.056s0 0-0.542 0.433c-0.779 0.506-1.677 0.93-2.631 1.225l-0.077 0.020-154.905 65.266c-3.276 1.427-7.093 2.257-11.103 2.257-15.709 0-28.444-12.735-28.444-28.444 0-11.699 7.063-21.748 17.157-26.117l0.184-0.071 137.573-58.117v-622.871c0.185-58.828 43.943-107.379 100.682-115.083l0.603-0.067c-10.274-16.84-16.357-37.213-16.357-59.006 0-63.296 51.312-114.608 114.608-114.608s114.608 51.312 114.608 114.608c0 0.027 0 0.054 0 0.082v-0.004c0.003 0.29 0.004 0.632 0.004 0.975 0 21.016-5.842 40.668-15.99 57.42l0.278-0.495h255.648c-10.176-16.5-16.218-36.492-16.249-57.891v-0.009c0-0.032 0-0.070 0-0.108 0-63.416 51.409-114.825 114.825-114.825s114.825 51.409 114.825 114.825c0 63.416-51.409 114.825-114.825 114.825h-536.211c-32.905 0-59.579 26.674-59.579 59.579v0 77.074c16.801-9.712 36.956-15.442 58.451-15.442 0.397 0 0.793 0.002 1.189 0.006h-0.060zM412.72 50.229c0-32.007-25.947-57.954-57.954-57.954s-57.954 25.947-57.954 57.954c0 32.007 25.947 57.954 57.954 57.954v0c31.933-0.183 57.771-26.021 57.954-57.937v-0.018zM865.52 50.229c-0.154-31.741-25.92-57.412-57.683-57.412-31.858 0-57.683 25.826-57.683 57.683s25.826 57.683 57.683 57.683c0.095 0 0.19 0 0.285-0.001h-0.015c31.754-0.215 57.413-26.006 57.413-57.79 0-0.058 0-0.115 0-0.173v0.009zM835.189 342.058h-563.834c-32.905 0-59.579 26.674-59.579 59.579v0 307.103l682.992-94.081v-212.859c0-0.048 0-0.105 0-0.162 0-32.905-26.674-59.579-59.579-59.579 0 0 0 0 0 0v0z" />
<glyph unicode="&#xe90e;" glyph-name="star-brand" horiz-adv-x="1075" d="M993.273 635.068l-262.355 18.834c-5.547 0.49-10.164 4.015-12.214 8.887l-0.036 0.096-99.531 243.214c-13.58 32.223-44.902 54.432-81.412 54.432s-67.832-22.209-81.195-53.853l-0.217-0.578-100.042-243.418c-2.017-5.019-6.673-8.58-12.204-8.981l-0.046-0.003-261.334-18.885c-46.018-2.996-82.207-41.055-82.207-87.566 0-26.604 11.841-50.443 30.54-66.534l0.115-0.097 202.636-167.417c3.106-2.602 5.068-6.483 5.068-10.821 0-1.288-0.173-2.537-0.497-3.722l0.023 0.099-61.761-252.81c-2.038-6.988-3.211-15.015-3.211-23.317 0-19.364 6.38-37.238 17.154-51.633l-0.161 0.225c16.222-20.846 41.239-34.187 69.382-34.402h0.035c17.13 0.023 33.036 5.245 46.23 14.172l-0.292-0.186 221.521 137.813c2.103 1.324 4.66 2.11 7.401 2.11s5.298-0.786 7.459-2.144l-0.058 0.034 224.073-137.404c12.995-9.006 29.087-14.402 46.437-14.445h0.011c26.804 0.349 50.617 12.854 66.224 32.245l0.13 0.167c11.996 15.022 19.25 34.289 19.25 55.251 0 7.29-0.877 14.375-2.532 21.155l0.126-0.609-61.761 253.524c-0.312 1.115-0.492 2.395-0.492 3.717 0 4.376 1.967 8.293 5.065 10.914l0.021 0.017 205.698 167.825c18.422 16.236 29.983 39.885 29.983 66.234 0 46.176-35.505 84.059-80.704 87.839l-0.321 0.022zM1010.117 522.266l-205.188-167.621c-15.339-12.423-25.063-31.255-25.063-52.359 0-5.916 0.764-11.653 2.199-17.118l-0.104 0.468 61.761-253.065c0.727-2.593 1.145-5.571 1.145-8.646 0-8.16-2.941-15.632-7.821-21.416l0.041 0.050c-5.74-7.403-14.53-12.205-24.452-12.504l-0.048-0.001c-6.551 0.128-12.563 2.331-17.433 5.977l0.078-0.056-224.584 137.813c-10.153 6.389-22.495 10.188-35.724 10.208h-0.006c-0.108 0.001-0.237 0.001-0.365 0.001-13.114 0-25.339-3.804-35.632-10.369l0.268 0.16-222.032-138.272c-4.931-3.18-10.954-5.069-17.419-5.069-10.582 0-19.981 5.063-25.908 12.899l-0.059 0.082c-4.011 5.001-6.437 11.424-6.437 18.412 0 3.689 0.676 7.22 1.911 10.476l-0.068-0.203 61.761 253.729c1.164 4.733 1.831 10.166 1.831 15.755 0 21.198-9.6 40.154-24.691 52.756l-0.109 0.089-202.125 167.162c-7.115 6.227-11.583 15.326-11.583 25.468 0 3.987 0.691 7.813 1.959 11.365l-0.074-0.236c4.268 13.003 16.023 22.343 30.044 22.966l0.071 0.002 261.844 18.834c26.36 1.816 48.423 18.475 58.023 41.61l0.165 0.449 100.042 243.418c5.21 12.609 17.411 21.319 31.646 21.319s26.436-8.711 31.563-21.093l0.083-0.227 100.042-243.418c9.67-23.457 31.513-40.071 57.449-42.044l0.228-0.014 262.865-19.039c13.837-1.008 25.281-10.236 29.534-22.782l0.070-0.237c0.982-3.054 1.549-6.567 1.549-10.213 0-10.076-4.325-19.141-11.22-25.441l-0.027-0.024z" />
<glyph unicode="&#xe90f;" glyph-name="star-menu" horiz-adv-x="1076" d="M993.877 634.961l-262.148 18.879c-5.555 0.329-10.187 3.949-11.995 8.924l-0.030 0.095-99.809 243.268c-13.461 32.222-44.719 54.454-81.17 54.454s-67.709-22.231-80.955-53.875l-0.215-0.579-100.41-243.509c-2.081-4.88-6.585-8.362-11.959-8.953l-0.066-0.006-262.148-18.879c-45.777-3.368-81.641-41.336-81.641-87.68 0-26.571 11.79-50.389 30.423-66.508l0.111-0.094 202.623-167.45c3.178-2.719 5.179-6.733 5.179-11.214 0-1.162-0.134-2.292-0.389-3.376l0.020 0.1-61.929-252.888c-2.005-6.951-3.159-14.935-3.159-23.189 0-19.409 6.377-37.328 17.151-51.776l-0.163 0.229c16.12-20.833 41.052-34.176 69.109-34.392h0.035c0.075 0 0.163 0 0.252 0 17.171 0 33.119 5.235 46.335 14.195l-0.29-0.185 221.262 137.868c2.137 1.339 4.734 2.133 7.516 2.133s5.379-0.794 7.576-2.168l-0.060 0.035 223.667-137.387c13.147-9.039 29.41-14.436 46.934-14.436 26.817 0 50.681 12.639 65.961 32.286l0.141 0.188c12.069 14.867 19.378 34.024 19.378 54.887 0 7.431-0.927 14.646-2.672 21.535l0.13-0.604-61.929 253.55c-0.244 1.010-0.384 2.169-0.384 3.361 0 4.514 2.006 8.559 5.175 11.294l0.019 0.016 205.63 167.871c18.505 16.21 30.127 39.886 30.127 66.276 0 46.212-35.636 84.102-80.927 87.686l-0.307 0.020zM1011.313 522.105l-205.63-167.69c-15.214-12.619-24.831-31.528-24.831-52.683 0-5.802 0.723-11.435 2.085-16.813l-0.101 0.472 61.929-253.129c0.651-2.512 1.026-5.395 1.026-8.365 0-8.244-2.881-15.816-7.69-21.763l0.051 0.065c-5.722-7.501-14.605-12.337-24.624-12.506h-0.027c-6.585 0.181-12.617 2.41-17.517 6.070l0.081-0.058-224.269 138.289c-10.285 6.325-22.74 10.079-36.069 10.101h-0.006c-0.119 0.001-0.261 0.001-0.402 0.001-13.034 0-25.167-3.858-35.319-10.495l0.247 0.152-222.465-138.289c-4.918-3.186-10.93-5.080-17.385-5.080-10.571 0-19.956 5.080-25.846 12.933l-0.060 0.084c-4.062 5.081-6.518 11.6-6.518 18.692 0 3.58 0.626 7.013 1.774 10.197l-0.066-0.21 61.929 253.79c1.157 4.73 1.821 10.16 1.821 15.745 0 21.176-9.544 40.122-24.565 52.773l-202.126 167.295c-7.209 5.998-11.765 14.973-11.765 25.011 0 4.173 0.787 8.162 2.221 11.826l-0.076-0.221c4.287 12.982 15.997 22.316 29.983 23.025l0.080 0.003 262.148 18.819c26.229 1.859 48.146 18.537 57.559 41.639l0.162 0.449 100.41 243.509c4.826 12.546 16.779 21.288 30.775 21.288 0.172 0 0.345-0.001 0.516-0.004h-0.026c0.093 0.001 0.202 0.001 0.312 0.001 14.202 0 26.372-8.699 31.472-21.060l0.083-0.226 99.809-243.509c9.826-23.595 31.924-40.254 58.109-42.076l0.213-0.012 262.148-19.060c14.065-0.712 25.775-10.046 29.995-22.793l0.067-0.235c1.010-3.103 1.593-6.675 1.593-10.382 0-10.084-4.31-19.162-11.188-25.491l-0.025-0.022z" />
<glyph unicode="&#xe910;" glyph-name="star-rate" horiz-adv-x="1063" d="M1040.259 495.746c14.215 13.916 23.027 33.302 23.027 54.746 0 38.281-28.084 70.003-64.773 75.685l-0.429 0.055-257.341 37.553c-11.183 1.657-20.443 8.625-25.25 18.211l-0.088 0.194-115.465 234.149c-12.669 25.446-38.498 42.622-68.338 42.622s-55.669-17.176-68.139-42.181l-0.199-0.441-115.052-234.149c-4.815-9.846-14.115-16.85-25.165-18.385l-0.173-0.020-257.341-37.553c-37.149-5.752-65.253-37.503-65.253-75.819 0-21.439 8.799-40.824 22.984-54.738l186.209-182.247c6.298-6.177 10.202-14.775 10.202-24.285 0-1.975-0.168-3.911-0.492-5.794l0.029 0.202-43.908-257.341c-0.798-4.099-1.254-8.812-1.254-13.632 0-18.49 6.719-35.411 17.848-48.455l-0.087 0.104c14.171-16.707 35.18-27.239 58.648-27.239 12.887 0 25.032 3.176 35.696 8.788l-0.42-0.201 230.105 121.49c4.559 2.382 9.957 3.78 15.681 3.78s11.123-1.398 15.872-3.87l-0.191 0.090 230.105-121.49c10.269-5.61 22.493-8.91 35.489-8.914h0.001c23.455 0.069 44.406 10.728 58.335 27.444l0.099 0.123c11.027 12.988 17.733 29.945 17.733 48.469 0 4.778-0.446 9.451-1.299 13.981l0.073-0.466-43.991 257.341c-0.295 1.681-0.463 3.617-0.463 5.593 0 9.51 3.904 18.108 10.197 24.279l0.005 0.005z" />
<glyph unicode="&#xe911;" glyph-name="telegram" horiz-adv-x="1169" d="M880.898 754.731l-481.268-296.174c-20.551-13.031-33.994-35.657-33.994-61.423 0-6.946 0.977-13.664 2.801-20.023l-0.126 0.512 52.021-182.983c4.248-15.001 17.82-25.807 33.915-25.807 0.139 0 0.277 0.001 0.415 0.002h2.618c17.041 1.202 30.696 14.253 32.825 30.907l0.018 0.177 13.548 100.289c1.991 13.996 8.624 26.167 18.263 35.157l0.035 0.032 397.108 369.485c6.143 5.771 9.969 13.946 9.969 23.016 0 17.426-14.127 31.553-31.553 31.553-6.145 0-11.879-1.756-16.728-4.794l0.132 0.077zM490.183 369.411c-17.349-16.253-29.221-38.166-32.662-62.78l-0.064-0.56-6.569-48.678-37.77 133.132c-0.584 2.021-0.92 4.341-0.92 6.741 0 9.004 4.73 16.903 11.84 21.349l0.106 0.062 352.535 216.999zM1151.502 948.27c-9.331 8.047-21.572 12.949-34.958 12.949-6.916 0-13.527-1.308-19.597-3.691l0.364 0.126-1062.473-410.538c-20.328-7.905-34.475-27.318-34.475-50.035 0-22.937 14.422-42.505 34.692-50.132l0.369-0.122 248.141-93.251 96.828-311.423c5.305-17.091 18.663-30.216 35.523-35.097l0.37-0.092c4.762-1.533 10.24-2.417 15.924-2.417 12.754 0 24.469 4.449 33.677 11.881l-0.102-0.080 144.275 117.883c3.336 2.783 7.668 4.472 12.394 4.472 4.394 0 8.447-1.46 11.7-3.921l260.233-188.812c8.671-6.59 19.649-10.557 31.553-10.557 0.021 0 0.041 0 0.062 0h-0.003c6.996 0.013 13.687 1.302 19.857 3.648l-0.386-0.129c16.772 6.869 29.206 21.296 33.184 38.926l0.070 0.368 190.666 917.847c0.707 3.287 1.112 7.063 1.112 10.933 0 16.479-7.339 31.243-18.928 41.203l-0.072 0.060zM1123.761 905.457l-190.666-917.26c-0.443-2.461-2.149-4.44-4.41-5.263l-0.048-0.015c-0.849-0.373-1.839-0.589-2.88-0.589-1.48 0-2.858 0.439-4.010 1.193l0.028-0.017-260.281 189.434c-10.808 7.703-24.283 12.316-38.836 12.316-0.038 0-0.075 0-0.113 0h0.006c-0.168 0.002-0.366 0.002-0.564 0.002-15.735 0-30.177-5.533-41.489-14.758l0.119 0.094-144.334-117.883c-1.060-1.052-2.52-1.703-4.132-1.703-0.883 0-1.721 0.195-2.473 0.545l0.036-0.015c-2.434 0.412-4.338 2.276-4.803 4.655l-0.006 0.037-100.23 322.566c-2.279 6.805-7.4 12.117-13.915 14.608l-0.161 0.054-258.874 96.77c-2.768 1.070-4.696 3.71-4.696 6.801 0 0.083 0.001 0.166 0.004 0.249v-0.012c-0.003 0.070-0.004 0.152-0.004 0.234 0 2.906 1.904 5.367 4.533 6.204l0.046 0.013 1062.473 409.952c0.826 0.472 1.816 0.751 2.871 0.751 1.719 0 3.266-0.74 4.339-1.919l0.004-0.005c1.665-1.145 2.743-3.040 2.743-5.186 0-0.661-0.102-1.298-0.291-1.896l0.012 0.044zM977.14 457.384c-1.435 0.312-3.084 0.491-4.775 0.491-11.261 0-20.669-7.935-22.938-18.518l-0.028-0.154-3.519-16.422c-0.307-1.422-0.482-3.056-0.482-4.731 0-11.047 7.635-20.31 17.916-22.801l0.16-0.033c1.238-0.386 2.661-0.608 4.136-0.608 0.278 0 0.554 0.008 0.828 0.023l-0.038-0.002c11.066 0.021 20.333 7.702 22.782 18.022l0.032 0.159 3.519 16.422c0.392 1.605 0.616 3.447 0.616 5.342 0 11.010-7.585 20.249-17.815 22.776l-0.161 0.034zM953.681 349.471c-1.535 0.363-3.298 0.572-5.109 0.572-11.011 0-20.223-7.702-22.544-18.012l-0.029-0.154-53.663-246.91c-0.384-1.589-0.604-3.414-0.604-5.289 0-11.091 7.696-20.384 18.039-22.83l0.159-0.032c1.701 0 3.343-0.586 4.985-0.586 11.2 0.113 20.513 8.058 22.729 18.615l0.027 0.153 53.605 246.91c0.403 1.603 0.635 3.444 0.635 5.338 0 10.839-7.578 19.908-17.725 22.198l-0.152 0.029z" />
<glyph unicode="&#xe912;" glyph-name="truck-1" horiz-adv-x="1097" d="M1093.435 436.853c0 0 0 0.578 0 0.867-0.124 9.348-2.823 18.252-7.534 24.788-4.703 6.537-11.030 10.181-17.613 10.141h-6.612l-102.1 280.516c-2.121 5.813-5.332 10.683-9.275 14.076-3.935 3.393-8.463 5.179-13.071 5.16h-174.27l6.663 74.921c1.039 14.348-0.066 28.845-3.226 42.549-3.167 13.705-8.331 26.312-15.148 36.999-6.817 10.611-15.148 19.046-24.426 24.755-9.281 5.709-19.309 8.559-29.422 8.364h-540.886c-6.602-0.045-12.958-3.566-17.837-9.885s-7.935-14.985-8.577-24.32l-5.445-61.686h308.133c4.725 0.042 9.405-1.27 13.765-3.86s8.305-6.401 11.603-11.209c3.297-4.808 5.878-10.51 7.589-16.768s2.515-12.943 2.365-19.653c-0.303-13.764-4.348-26.824-11.286-36.439s-16.23-15.037-25.921-15.124h-404.581c-6.816-0.067-13.354-3.858-18.254-10.591s-7.787-15.89-8.061-25.568c-0.082-4.718 0.506-9.412 1.724-13.804s3.043-8.391 5.368-11.763c2.325-3.371 5.104-6.047 8.17-7.865s6.358-2.747 9.68-2.726h399.592c9.091-1.973 17.36-8.61 23.24-18.657s8.966-22.809 8.673-35.869c-0.326-14.642-4.612-28.54-11.969-38.804s-17.218-16.103-27.527-16.301h-275.504c-6.918-0.069-13.55-3.94-18.503-10.802s-7.844-16.183-8.068-26.007c-0.096-4.813 0.494-9.604 1.733-14.084s3.103-8.559 5.48-11.99c2.377-3.431 5.217-6.144 8.351-7.976s6.497-2.746 9.885-2.686h272.2c9.202-1.797 17.611-8.369 23.606-18.45s9.154-22.958 8.866-36.149c-0.329-14.736-4.665-28.717-12.097-39.006s-17.38-16.086-27.756-16.173h-338.567c-6.918-0.069-13.549-3.941-18.502-10.802s-7.844-16.183-8.068-26.007c-0.103-4.815 0.481-9.61 1.718-14.095s3.101-8.568 5.48-12.001c2.378-3.434 5.223-6.145 8.36-7.974s6.501-2.736 9.891-2.666h22.65l-8.857-131.758c-1.088-14.321-0.025-28.804 3.119-42.489 3.144-13.692 8.297-26.28 15.119-36.93s15.157-19.12 24.455-24.854c9.298-5.734 19.347-8.594 29.481-8.397h19.543c4.597-37.383 18.37-71.234 38.869-95.554s46.4-37.537 73.106-37.296c27.115 0.278 53.371 13.539 74.522 37.647s35.961 57.651 42.032 95.203h243.85c19.457 0.241 38.227 10.255 52.985 28.277 13.604-18.439 31.741-28.592 50.542-28.277h3.964c4.601-37.383 18.373-71.234 38.875-95.554 20.495-24.32 46.395-37.537 73.099-37.296 27.121 0.271 53.387 13.531 74.547 37.639s35.979 57.651 42.064 95.21h16.084c20.699 0.556 40.55 11.835 55.815 31.715 15.272 19.88 24.905 46.994 27.092 76.251l15.777 248.264v1.011c0.029 0.505 0.029 1.013 0 1.518v0.94l-0.761-0.649zM283.658 17.847c-8.428-0.051-16.775 2.304-24.547 6.934s-14.809 11.44-20.69 20.019c-5.88 8.58-10.484 18.747-13.538 29.908s-4.494 23.084-4.234 35.057c0.563 24.488 7.76 47.726 20.087 64.863s28.833 26.858 46.079 27.121c8.43 0.044 16.781-2.319 24.554-6.963 7.773-4.637 14.809-11.447 20.689-20.034 5.88-8.58 10.483-18.761 13.535-29.93 3.053-11.162 4.494-23.084 4.234-35.057-0.563-24.488-7.761-47.718-20.089-64.841-12.329-17.13-28.838-26.829-46.079-27.077zM863.327 17.847c-8.426-0.051-16.779 2.304-24.547 6.934-7.775 4.63-14.811 11.44-20.692 20.019s-10.489 18.747-13.539 29.908c-3.050 11.162-4.491 23.084-4.235 35.057 0.549 24.496 7.746 47.74 20.078 64.885 12.325 17.137 28.84 26.851 46.095 27.099 8.426 0.044 16.779-2.319 24.547-6.963 7.775-4.637 14.811-11.447 20.692-20.034 5.881-8.58 10.481-18.761 13.539-29.93 3.050-11.162 4.491-23.084 4.228-35.057-0.549-24.496-7.739-47.733-20.070-64.863s-28.848-26.821-46.095-27.056v0zM1026.202 189.82c-0.878-10.54-4.381-20.29-9.882-27.465-5.5-7.183-12.639-11.315-20.1-11.659h-17.408c-5.72 35.525-19.792 67.218-39.885 89.863-20.092 22.649-45.012 34.901-70.663 34.738-26.097-0.258-51.434-12.546-72.192-35.016-20.765-22.469-35.833-53.906-42.942-89.585h-5.339c-3.087-0.102-6.159 0.724-9.004 2.421-2.853 1.69-5.42 4.22-7.539 7.409-2.049 3.35-3.589 7.263-4.526 11.491s-1.25 8.689-0.919 13.1l32.623 513.449h74.971l-11.908-187.011c-1.024-14.342 0.073-28.831 3.233-42.532 3.152-13.701 8.294-26.311 15.089-37.017 6.839-10.588 15.177-19.005 24.466-24.7s19.317-8.541 29.433-8.349h145.774l-13.283-209.137z" />
<glyph unicode="&#xe913;" glyph-name="twitter" horiz-adv-x="755" d="M587.075-51.604h-270.283c-84.080 0.054-164.707 33.452-224.211 92.855s-93.027 139.97-93.227 224.051v576.132c0 31.332 12.444 61.384 34.599 83.539s52.204 34.605 83.536 34.605c31.332 0 61.381-12.45 83.536-34.605s34.601-52.208 34.601-83.539v-258.697h278.365c31.304 0 61.328-12.431 83.463-34.566s34.568-52.157 34.568-83.46c0-31.304-12.434-61.325-34.568-83.459s-52.159-34.568-83.463-34.568h-278.365v-81.381c0-10.644 2.101-21.186 6.184-31.011 4.083-9.83 10.068-18.755 17.608-26.263 7.541-7.513 16.49-13.458 26.336-17.5 9.845-4.047 20.393-6.112 31.036-6.069h270.283c31.302 0 61.327-12.428 83.461-34.563 22.135-22.14 34.568-52.159 34.568-83.461 0-31.307-12.434-61.327-34.568-83.461s-52.159-34.579-83.461-34.579v0zM117.489 901.803c-16.014 0-31.372-6.366-42.701-17.684s-17.7-26.67-17.714-42.684v-576.132c0.171-68.786 27.602-134.699 76.286-183.291s114.647-75.905 183.431-75.948h270.283c16.007 0 31.361 6.365 42.685 17.688 11.318 11.318 17.677 26.673 17.677 42.685 0 16.007-6.36 31.361-17.677 42.685-11.323 11.318-26.678 17.667-42.685 17.667h-270.283c-36.779-0.027-72.064 14.546-98.106 40.513-26.041 25.972-40.708 61.224-40.779 98.002v110.49c0.057 7.61 3.129 14.897 8.543 20.248s12.731 8.343 20.345 8.316h307.197c7.927 0 15.779 1.558 23.102 4.592s13.979 7.475 19.584 13.079c5.605 5.605 10.051 12.269 13.086 19.592 3.029 7.324 4.592 15.165 4.592 23.092s-1.563 15.781-4.592 23.105c-3.034 7.323-7.481 13.974-13.086 19.579s-12.261 10.045-19.584 13.079c-7.323 3.033-15.175 4.605-23.102 4.605h-307.197c-3.81 0.007-7.583 0.756-11.099 2.224s-6.708 3.625-9.392 6.329c-2.684 2.704-4.805 5.907-6.246 9.434s-2.172 7.295-2.151 11.105v287.263c0 7.931-1.565 15.791-4.602 23.118s-7.488 13.973-13.099 19.579c-5.611 5.606-12.269 10.062-19.599 13.092s-15.187 4.586-23.118 4.579v0z" />
<glyph unicode="&#xe914;" glyph-name="zmant-kala" horiz-adv-x="1055" d="M726.088 299.312c54.659 0 98.97 44.31 98.97 98.97s-44.31 98.97-98.97 98.97c-54.659 0-98.97-44.31-98.97-98.97v0c0.076-54.629 44.341-98.894 98.962-98.969h0.007zM990.029 959.064h-923.827c-36.428 0-65.964-29.512-66.002-65.931v-593.821c0.114-36.406 29.596-65.888 65.991-66.002h494.859v-263.941c0.057-18.201 14.825-32.934 33.034-32.934 7.462 0 14.347 2.474 19.878 6.647l-0.084-0.060 112.143 84.057 112.21-84.057c5.439-4.131 12.324-6.617 19.79-6.617 5.364 0 10.428 1.284 14.902 3.561l-0.187-0.086c10.905 5.526 18.251 16.649 18.256 29.49v263.942h98.97c36.406 0.114 65.888 29.596 66.002 65.991v593.828c-0.114 36.369-29.566 65.821-65.924 65.935h-0.011zM621.368 272.363c-3.329 10.103-11.148 17.9-21.033 21.132l-0.232 0.066-35.509 11.435 7.824 36.512c0.451 2.060 0.71 4.426 0.71 6.852 0 8.553-3.212 16.357-8.495 22.27l-25.048 27.653 25.077 27.685c5.266 5.829 8.489 13.592 8.489 22.108 0 2.449-0.266 4.836-0.772 7.133l0.040-0.219-7.824 36.512 35.509 11.435c10.124 3.321 17.944 11.141 21.199 21.033l0.066 0.233 11.502 35.576 36.512-7.891c2.089-0.475 4.489-0.747 6.952-0.747 8.518 0 16.275 3.257 22.095 8.593l-0.024-0.022 27.685 25.010 27.685-25.010c5.805-5.318 13.573-8.577 22.103-8.577 2.475 0 4.887 0.274 7.205 0.795l-0.219-0.041 36.445 7.891 11.502-35.576c3.321-10.124 11.141-17.944 21.033-21.199l0.233-0.066 35.509-11.435-7.824-36.512c-0.468-2.078-0.736-4.464-0.736-6.913 0-8.529 3.252-16.298 8.583-22.135l-0.023 0.025 25.010-27.685-25.010-27.752c-5.308-5.812-8.56-13.581-8.56-22.11 0-2.449 0.268-4.835 0.776-7.131l-0.041 0.218 7.824-36.512-35.509-11.435c-10.117-3.298-17.936-11.096-21.199-20.966l-0.066-0.232-11.435-35.576-36.512 7.891c-2.076 0.464-4.461 0.73-6.908 0.73-8.55 0-16.342-3.248-22.208-8.579l0.027 0.024-27.685-25.077-27.685 25.077c-5.821 5.308-13.598 8.559-22.134 8.56v0c-2.386-0.033-4.691-0.3-6.918-0.777l0.23 0.041-36.445-7.891zM165.172 827.394h659.886c0.444 0.021 0.963 0.033 1.486 0.033 18.244 0 33.034-14.79 33.034-33.034s-14.79-33.034-33.034-33.034c-0.523 0-1.042 0.012-1.559 0.036l0.073-0.003h-659.886c-16.76 1.742-29.715 15.792-29.715 32.867s12.955 31.125 29.573 32.855l0.142 0.012zM165.172 662.423h329.943c18.207 0 32.968-14.76 32.968-32.968s-14.76-32.968-32.968-32.968h-329.943c-18.207 0-32.968 14.76-32.968 32.968s14.76 32.968 32.968 32.968v0zM363.178 431.516h-198.006c-17.594 0.817-31.549 15.279-31.549 33.001s13.955 32.184 31.475 32.998l0.073 0.003h198.006c18.3 0 33.135-14.835 33.135-33.135s-14.835-33.135-33.135-33.135v0z" />
<glyph unicode="&#xe915;" glyph-name="arrow-left-emty" d="M559.68 659.2v0c8.605 8.387 20.377 13.56 33.357 13.56 26.404 0 47.808-21.404 47.808-47.808 0-14.413-6.378-27.337-16.467-36.102l-0.059-0.050-153.28-140.8 153.28-140.608c10.147-8.815 16.525-21.739 16.525-36.152 0-26.404-21.404-47.808-47.808-47.808-12.98 0-24.753 5.173-33.367 13.57l0.010-0.010-192 176c-9.648 8.769-15.681 21.368-15.681 35.376s6.033 26.607 15.642 35.341l0.039 0.035zM512 960c282.77 0 512-229.23 512-512s-229.23-512-512-512c-282.77 0-512 229.23-512 512v0c0 282.77 229.23 512 512 512v0zM512 32c229.75 0 416 186.25 416 416s-186.25 416-416 416c-229.75 0-416-186.25-416-416v0c0.255-229.648 186.352-415.745 415.976-416h0.024z" />
<glyph unicode="&#xe916;" glyph-name="arrow-right" horiz-adv-x="580" d="M558.87 397.373l-437.502-439.839c-12.869-12.961-30.697-20.983-50.398-20.983s-37.529 8.023-50.394 20.979l-0.004 0.004c-12.888 12.988-20.852 30.878-20.852 50.627s7.964 37.639 20.856 50.632l-0.005-0.005 387.104 388.983-387.104 389.441c-12.888 12.988-20.852 30.878-20.852 50.627s7.964 37.639 20.856 50.632l-0.005-0.005c12.869 12.961 30.697 20.983 50.398 20.983s37.529-8.023 50.394-20.979l0.004-0.004 437.548-439.839c12.878-13.080 20.833-31.038 20.847-50.854v-0.003c0-0.078 0-0.17 0-0.261 0-19.603-7.989-37.339-20.888-50.132l-0.005-0.005z" />
<glyph unicode="&#xe917;" horiz-adv-x="862" d="M714.231 188.303l-51.064 575.658c-1.172 12.61-11.666 22.415-24.466 22.489h-105.177c-1.717 96.046-79.981 173.248-176.276 173.248s-174.559-77.202-176.273-173.087l-0.002-0.161h-105.038c-0.035 0-0.076 0-0.117 0-12.81 0-23.318-9.858-24.351-22.402l-0.006-0.088-51.064-575.658c0-0.728-0.265-1.455-0.265-2.183 0-65.549 60.059-118.862 134.009-118.862h446.345c73.95 0 133.877 53.313 133.877 118.862 0.003 0.108 0.005 0.235 0.005 0.363 0 0.642-0.050 1.273-0.147 1.888l0.009-0.068zM357.314 910.749c69.191-0.057 125.443-55.381 126.995-124.207l0.003-0.145h-253.996c1.555 68.971 57.806 124.295 126.992 124.352h0.006zM580.486 116.562h-446.345c-46.434 0-84.004 30.665-84.665 68.46l48.815 551.925h82.549v-74.863c0-13.589 11.016-24.606 24.606-24.606s24.606 11.016 24.606 24.606v0 74.863h254.26v-74.863c0-13.589 11.016-24.606 24.606-24.606s24.606 11.016 24.606 24.606v0 74.863h82.549l49.079-551.925c-0.794-37.795-38.496-68.46-84.665-68.46z" />
<glyph unicode="&#xe918;" horiz-adv-x="862" d="M862.395 150.97c0-118.725-96.246-214.97-214.97-214.97s-214.97 96.246-214.97 214.97c0 118.725 96.246 214.97 214.97 214.97s214.97-96.246 214.97-214.97z" />
<glyph unicode="&#xe919;" horiz-adv-x="862" d="M637.503 266.724h39.687v-211.663h-39.687v211.663z" />
<glyph unicode="&#xe91a;" horiz-adv-x="862" d="M558.129 174.121h211.663v-39.687h-211.663v39.687z" />
<glyph unicode="&#xe91b;" glyph-name="bag-reverse" horiz-adv-x="1172" d="M1097.997 484.313v109.891c0 40.447-32.789 73.235-73.235 73.235v0h-805.513c-40.447 0-73.235 32.789-73.235 73.235s32.789 73.235 73.235 73.235v0h805.513c40.447 0 73.235 32.789 73.235 73.235s-32.789 73.235-73.235 73.235v0h-805.513c-121.27-0.173-219.533-98.435-219.706-219.689v-659.136c0-80.894 65.577-146.471 146.471-146.471v0h878.749c40.447 0 73.235 32.789 73.235 73.235v0 109.815c40.447 0 73.235 32.789 73.235 73.235v0 219.706c0 40.447-32.789 73.235-73.235 73.235v0zM988.182 228.027c-40.447 0-73.235 32.789-73.235 73.235s32.789 73.235 73.235 73.235c40.447 0 73.235-32.789 73.235-73.235v0c0-40.447-32.789-73.235-73.235-73.235v0z" />
<glyph unicode="&#xe91c;" glyph-name="bag-shop" horiz-adv-x="951" d="M271.138 285.187h564.050c64.11 0.154 116.033 52.115 116.125 116.224v240.058c0.047 0.187 0.074 0.402 0.074 0.623s-0.027 0.436-0.078 0.641l0.004-0.018c0 0.433 0 1.083 0 1.462s0 0.812 0 1.246c-0.255 0.408-0.508 0.888-0.728 1.387l-0.030 0.076c0 0.433 0 0.812-0.433 1.246s0 0.867-0.433 1.246c-0.24 0.42-0.443 0.906-0.585 1.417l-0.011 0.045c-0.182 0.414-0.4 0.77-0.658 1.093l0.008-0.010-0.65 1.246-0.596 1.029c0 0.433-0.65 0.867-0.867 1.3-0.226 0.395-0.496 0.734-0.81 1.027l-0.003 0.002c0 0.433-0.65 0.65-0.867 1.083s-0.65 0.65-0.867 1.083c-0.207 0.332-0.48 0.605-0.802 0.806l-0.010 0.006-1.029 1.083c-0.433 0-0.65 0.65-1.083 0.867s-0.812 0.65-1.246 0.867l-1.083 0.65c-0.476 0.243-0.886 0.532-1.249 0.87l0.003-0.003-1.246 0.65-1.3 0.65-1.246 0.65c-0.433 0-0.812 0-1.246 0.433-0.424 0.223-0.92 0.377-1.445 0.432l-0.018 0.002c-0.162-0.010-0.351-0.016-0.542-0.016s-0.38 0.006-0.567 0.017l0.026-0.001c-0.252 0.050-0.543 0.078-0.84 0.078s-0.587-0.028-0.868-0.083l0.029 0.005c-0.122 0.010-0.263 0.015-0.406 0.015s-0.285-0.006-0.425-0.016l0.019 0.001-714.948 98.739v100.201c0.055 0.439 0.086 0.947 0.086 1.462s-0.031 1.023-0.092 1.522l0.006-0.060c0.034 0.122 0.053 0.262 0.053 0.406s-0.020 0.284-0.056 0.417l0.003-0.011c0 0.65 0 1.246 0 1.896s0 1.083-0.433 1.679 0 0.596 0 1.083-0.433 1.246-0.596 1.896 0 0.65 0 0.867c-0.22 0.641-0.513 1.197-0.879 1.697l0.012-0.018s0 0.596-0.433 0.812c-0.204 0.482-0.478 0.894-0.814 1.247l0.002-0.002c0 0.433-0.433 0.65-0.65 1.029-0.191 0.298-0.389 0.653-0.568 1.019l-0.028 0.064c0 0.433-0.65 0.867-0.867 1.246l-1.896 1.896-2.004 0.65c-0.422 0.478-0.903 0.89-1.435 1.23l-0.027 0.016-0.812 0.65c-0.433 0.433-0.867 0.596-1.3 1.029-0.542 0.459-1.144 0.888-1.78 1.266l-0.061 0.034s0 0-0.379 0l-2.762 1.3-155.068 64.995c-3.261 1.412-7.059 2.233-11.049 2.233-15.711 0-28.448-12.737-28.448-28.448 0-11.722 7.089-21.788 17.214-26.144l0.185-0.071 137.627-58.117v-622.871c0.104-58.823 43.846-107.398 100.575-115.083l0.601-0.067c-10.308-16.866-16.411-37.276-16.411-59.111 0-63.326 51.336-114.662 114.662-114.662s114.662 51.336 114.662 114.662c0 0.064 0 0.128 0 0.192v-0.010c0 0.11 0.001 0.239 0.001 0.369 0 21.225-5.858 41.082-16.046 58.042l0.285-0.511h255.431c-9.937-16.47-15.816-36.36-15.816-57.622 0-0.098 0-0.195 0-0.293v0.015c0.031-63.303 51.355-114.608 114.662-114.608 63.326 0 114.662 51.336 114.662 114.662s-51.336 114.662-114.662 114.662h-536.211c-32.905 0-59.579 26.674-59.579 59.579v0 77.507c16.937-10.076 37.343-16.032 59.142-16.032 0.059 0 0.117 0 0.176 0h-0.009zM412.503 50.229c-0.031-31.924-25.917-57.792-57.846-57.792-31.947 0-57.846 25.898-57.846 57.846s25.898 57.846 57.846 57.846v0c31.942-0.062 57.815-25.954 57.846-57.897v-0.003zM865.682 50.229c-0.031-31.924-25.917-57.792-57.846-57.792-31.947 0-57.846 25.898-57.846 57.846s25.898 57.846 57.846 57.846v0c31.942-0.062 57.815-25.954 57.846-57.897v-0.003zM835.189 342.004h-564.050c-32.905 0-59.579 26.674-59.579 59.579v0 307.103l682.45-94.081v-212.805c0-0.050 0-0.108 0-0.167 0-32.638-26.244-59.146-58.781-59.574h-0.040z" />
<glyph unicode="&#xe91d;" glyph-name="bag-shop-more" horiz-adv-x="1015" d="M1015.186 552.083c-5.811 47.509-45.908 83.944-94.515 83.944-3.996 0-7.935-0.246-11.802-0.725l0.463 0.047h-52.263c-8.243 181.031-157.013 324.679-339.334 324.679-1.533 0-3.065-0.010-4.593-0.030l0.232 0.002h-12.401c-1.269 0.017-2.767 0.027-4.267 0.027-182.294 0-331.034-143.661-339.181-323.943l-0.026-0.734h-52.484c-3.37 0.424-7.271 0.666-11.228 0.666-52.47 0-95.005-42.535-95.005-95.005 0-48.513 36.362-88.533 83.318-94.293l0.459-0.046v-388.429c0-0.039 0-0.086 0-0.133 0-67.684 54.869-122.552 122.552-122.552 0 0 0 0 0 0h601.91c0.771-0.017 1.679-0.027 2.59-0.027 66.761 0 121.032 53.48 122.308 119.936l0.002 0.119v391.087c47.479 5.742 83.912 45.793 83.912 94.354 0 3.897-0.235 7.739-0.69 11.513l0.045-0.455zM500.972 909.952h12.401c155.090-1.336 281.729-121.351 293.583-273.581l0.064-1.021h-599.696c12.232 153.106 138.685 272.939 293.482 274.601l0.165 0.001zM881.871 58.242c0.001-0.105 0.001-0.23 0.001-0.354 0-39.89-32.312-72.232-72.19-72.282h-602.358c-0.66-0.022-1.437-0.034-2.216-0.034-39.185 0-71.118 31.047-72.543 69.883l-0.004 0.13c0 0.886 0 1.772 0 2.657v389.758h749.354v-389.758zM909.331 498.048h-804.318c-24.094 0-43.626 19.532-43.626 43.626s19.532 43.626 43.626 43.626h804.318c24.094 0 43.626-19.532 43.626-43.626s-19.532-43.626-43.626-43.626v0zM507.172 86.588c13.883 0.148 25.097 11.363 25.246 25.232v199.765c0.018 0.345 0.028 0.749 0.028 1.155 0 12.796-9.956 23.266-22.544 24.087l-0.072 0.004h-2.657c-0.325 0.016-0.706 0.025-1.090 0.025-12.715 0-23.095-9.996-23.711-22.558l-0.002-0.055v-202.408c0-0.027 0-0.059 0-0.091 0-13.769 11.062-24.955 24.784-25.154h0.019zM694.522 86.588c13.883 0.148 25.097 11.363 25.246 25.232v199.765c0.018 0.345 0.028 0.749 0.028 1.155 0 12.796-9.956 23.266-22.544 24.087l-0.072 0.004h-2.657c-0.25 0.009-0.543 0.015-0.838 0.015-12.764 0-23.202-9.963-23.961-22.536l-0.003-0.067v-202.408c0-0.027 0-0.059 0-0.091 0-13.769 11.062-24.955 24.784-25.154h0.019zM319.823 86.588c13.883 0.148 25.097 11.363 25.246 25.232v199.765c0.018 0.345 0.028 0.749 0.028 1.155 0 12.796-9.956 23.266-22.544 24.087l-0.072 0.004h-2.657c-0.325 0.016-0.706 0.025-1.090 0.025-12.715 0-23.095-9.996-23.711-22.558l-0.002-0.055v-202.408c0-0.027 0-0.059 0-0.091 0-13.769 11.062-24.955 24.784-25.154h0.019z" />
<glyph unicode="&#xe91e;" glyph-name="bar-code" horiz-adv-x="1429" d="M1102.497 960.295v0c25.703 0 46.539-20.836 46.539-46.539v-930.922l-0.003-0.092c-1.019-24.841-21.481-44.668-46.573-44.668s-45.553 19.826-46.576 44.76v930.922c0 25.703 20.836 46.539 46.539 46.539 0.026 0 0.052 0 0.074 0zM574.518 960.295v0c0 0 0 0 0 0 25.717 0 46.57-20.827 46.612-46.539v-930.922c0-25.743-20.869-46.612-46.612-46.612s-46.612 20.869-46.612 46.612v930.926c0.042 25.708 20.895 46.535 46.612 46.535 0 0 0 0 0 0zM357.141 960.295v0c25.703 0 46.539-20.836 46.539-46.539v-930.922l-0.003-0.092c-1.019-24.841-21.481-44.668-46.573-44.668s-45.553 19.826-46.576 44.76v930.922c0 25.703 20.836 46.539 46.539 46.539 0.026 0 0.052 0 0.074 0zM93.151 960.295h-0.004c0.026 0 0.052 0 0.078 0 51.405 0 93.078-41.672 93.078-93.078v-837.845c0-51.446-41.705-93.151-93.151-93.151s-93.151 41.705-93.151 93.151v837.845c0 51.405 41.672 93.078 93.078 93.078 0.026 0 0.052 0 0.074 0zM838.508 960.295h-0.004c0.026 0 0.052 0 0.078 0 51.405 0 93.078-41.672 93.078-93.078v-837.845c0-51.446-41.705-93.151-93.151-93.151s-93.151 41.705-93.151 93.151v837.845c0 51.405 41.672 93.078 93.078 93.078 0.026 0 0.052 0 0.074 0zM838.508 960.295c-0.022 0-0.048 0-0.074 0-51.405 0-93.078-41.672-93.078-93.078v0-837.845c0-51.446 41.705-93.151 93.151-93.151s93.151 41.705 93.151 93.151v0 837.845c0 51.405-41.672 93.078-93.078 93.078-0.026 0-0.052 0-0.078 0h0.004zM1335.412 960.295c-0.022 0-0.048 0-0.074 0-51.42 0-93.109-41.663-93.151-93.073v-837.849c1.46-50.347 42.623-90.605 93.188-90.605s91.728 40.258 93.185 90.471l0.003 0.134v837.845c-0.042 51.363-41.647 92.994-92.996 93.078h-0.008z" />
<glyph unicode="&#xe91f;" glyph-name="catalog" horiz-adv-x="1137" d="M1126.912 181.459c-40.448 73.788-217.63 120.471-374.061 129.506-14.125 15.36-28.491 31.322-43.189 48.188-134.445 155.106-188.898 380.687-209.227 499.953-2.409 25.299-5.090 46.381-7.319 62.042 0.070 0.841 0.11 1.821 0.11 2.81 0 18.636-14.199 33.955-32.369 35.729l-0.147 0.012c-0.005 0-0.011 0-0.017 0-9.030 0-17.138-3.946-22.694-10.209l-0.027-0.031c-5.062-6.846-8.102-15.454-8.102-24.773 0-4.158 0.605-8.174 1.733-11.966l-0.076 0.297c1.897-15.962 4.759-36.744 8.855-60.838 11.445-121.073 16.866-352.075-75.625-535.492-9.638-18.974-19.245-37.346-28.792-54.814-173.056-50.899-312.712-141.553-333.161-216.546-1.971-6.386-3.106-13.727-3.106-21.333 0-20.291 8.078-38.694 21.193-52.171l-0.016 0.017c19.206-21.683 47.051-35.339 78.090-35.539h0.035c81.89 0 175.194 92.16 277.384 273.468 38.038 10.703 83.655 19.499 130.371 24.644l3.954 0.354c17.016 1.807 44.544 5.421 61.44 8.132 36.33 5.582 78.24 8.771 120.895 8.771 11.502 0 22.95-0.232 34.34-0.691l-1.634 0.052c125.44-131.313 228.021-198.174 304.881-198.174 0.419-0.006 0.913-0.009 1.409-0.009 40.896 0 76.434 22.942 94.446 56.658l0.281 0.575c6.067 10.267 9.652 22.624 9.652 35.82 0 13.089-3.528 25.355-9.684 35.897l0.182-0.338zM1074.116 151.944c1.199-1.675 1.917-3.765 1.917-6.024s-0.718-4.348-1.939-6.055l0.021 0.032c-7.93-15.691-23.926-26.261-42.391-26.261-0.831 0-1.658 0.021-2.478 0.064l0.115-0.005c-48.188 0-121.916 45.779-210.342 130.108 137.035-17.468 237.086-59.332 255.096-91.859zM289.641 182.362c-73.156-116.555-143.149-184.922-190.584-184.922-13.871 0.187-26.216 6.564-34.423 16.488l-0.061 0.076c-2.76 2.481-4.488 6.063-4.488 10.049 0 1.805 0.354 3.527 0.997 5.1l-0.033-0.090c10.541 38.551 99.117 105.111 228.593 153.299v0zM414.75 281.449c1.265 2.409 2.53 5.12 3.795 7.529 45.927 93.771 76.027 203.175 83.707 318.711l0.141 2.644c37.799-111.993 92.869-208.814 162.947-292.658l-1.155 1.421c1.928-2.409 3.945-4.518 6.024-6.927-38.481-0.78-75.49-4.037-111.73-9.627l4.662 0.592c-16.083-2.711-42.165-6.024-58.308-7.831-34.614-3.383-65.334-8.27-95.429-14.832l5.347 0.978z" />
<glyph unicode="&#xe920;" glyph-name="comment" horiz-adv-x="1098" d="M1.018 851.047v-603.79c0.829-60.249 49.451-108.871 109.621-109.699l0.079-0.001h146.266v-183.172c0.027-7.687 4.802-14.253 11.545-16.917l0.124-0.043c1.955-0.816 4.226-1.29 6.608-1.29 0.062 0 0.124 0 0.186 0.001h-0.009c0.011 0 0.025 0 0.038 0 5.352 0 10.169 2.296 13.518 5.956l0.013 0.014 177.406 195.18h522.38c60.264 0.792 108.907 49.435 109.699 109.624l0.001 0.075v604.061c-0.791 60.278-49.427 108.938-109.621 109.767l-0.079 0.001h-878.073c-60.258-0.867-108.872-49.504-109.699-109.689l-0.001-0.079zM732.349 558.514c0 40.39 32.743 73.133 73.133 73.133s73.133-32.743 73.133-73.133c0-40.39-32.743-73.133-73.133-73.133v0c-40.28 0.038-72.941 32.604-73.133 72.843v0.018zM476.383 558.514c0 40.39 32.743 73.133 73.133 73.133s73.133-32.743 73.133-73.133c0-40.39-32.743-73.133-73.133-73.133v0c-40.28 0.038-72.941 32.604-73.133 72.843v0.018zM220.417 558.514c0 40.39 32.743 73.133 73.133 73.133s73.133-32.743 73.133-73.133c0-40.39-32.743-73.133-73.133-73.133v0c-40.28 0.038-72.941 32.604-73.133 72.843v0.018z" />
</font>
</defs>
</svg>
